<?xml version="1.0" encoding="UTF-8" standalone="no"?>
<!-- Created with Inkscape (http://www.inkscape.org/) -->
<svg
   xmlns:dc="http://purl.org/dc/elements/1.1/"
   xmlns:cc="http://web.resource.org/cc/"
   xmlns:rdf="http://www.w3.org/1999/02/22-rdf-syntax-ns#"
   xmlns:svg="http://www.w3.org/2000/svg"
   xmlns="http://www.w3.org/2000/svg"
   xmlns:sodipodi="http://inkscape.sourceforge.net/DTD/sodipodi-0.dtd"
   xmlns:inkscape="http://www.inkscape.org/namespaces/inkscape"
   width="101"
   height="121"
   id="svg2"
   sodipodi:version="0.32"
   inkscape:version="0.43"
   sodipodi:docbase="/Users/imac/Pictures/wiki"
   sodipodi:docname="texte.svg"
   version="1.0">
  <defs
     id="defs4" />
  <sodipodi:namedview
     id="base"
     pagecolor="#ffffff"
     bordercolor="#666666"
     borderopacity="1.0"
     inkscape:pageopacity="0.0"
     inkscape:pageshadow="2"
     inkscape:zoom="0.35"
     inkscape:cx="375"
     inkscape:cy="69.714286"
     inkscape:document-units="cm"
     inkscape:current-layer="layer1"
     inkscape:window-width="726"
     inkscape:window-height="539"
     inkscape:window-x="77"
     inkscape:window-y="84" />
  <metadata
     id="metadata7">
    <rdf:RDF>
      <cc:Work
         rdf:about="">
        <dc:format>image/svg+xml</dc:format>
        <dc:type
           rdf:resource="http://purl.org/dc/dcmitype/StillImage" />
      </cc:Work>
    </rdf:RDF>
  </metadata>
  <g
     inkscape:label="Layer 1"
     inkscape:groupmode="layer"
     id="layer1">
    <text
       xml:space="preserve"
       style="font-size:215.8918457px;font-style:normal;font-variant:normal;font-weight:normal;font-stretch:normal;text-align:start;line-height:100%;writing-mode:lr-tb;text-anchor:start;fill:#000000;fill-opacity:1;stroke:none;stroke-width:1px;stroke-linecap:butt;stroke-linejoin:miter;stroke-opacity:1;font-family:Helvetica"
       x="465.92642"
       y="458.70044"
       id="text1517"
       transform="scale(0.642844,1.555588)"
       sodipodi:linespacing="100%"><tspan
         sodipodi:role="line"
         id="tspan1519"
         x="465.92642"
         y="458.70044"><tspan
           style="font-size:215.89189148px;font-style:normal;font-variant:normal;font-weight:normal;font-stretch:normal;text-align:start;line-height:100%;writing-mode:lr-tb;text-anchor:start;font-family:Helvetica Neue"
           id="tspan1521"><tspan
             style="font-size:215.89193726px;font-style:normal;font-variant:normal;font-weight:normal;font-stretch:normal;text-align:start;line-height:100%;writing-mode:lr-tb;text-anchor:start;font-family:Lucida Grande"
             id="tspan1533"> </tspan></tspan></tspan></text>
    <path
       style="font-size:144px;font-style:normal;font-variant:normal;font-weight:normal;font-stretch:normal;text-align:start;line-height:100%;writing-mode:lr-tb;text-anchor:start;fill:#000000;fill-opacity:1;stroke:none;stroke-width:1px;stroke-linecap:butt;stroke-linejoin:miter;stroke-opacity:1;font-family:Helvetica"
       d="M 28.70919,28.62966 C 32.22477,28.62975 36.46696,29.35632 41.43575,30.80935 C 46.45132,32.26256 49.77944,32.98912 51.42013,32.98904 C 53.52944,32.98912 56.97475,32.16881 61.756057,30.5281 C 66.537237,28.88757 70.685667,28.06725 74.201377,28.06716 C 79.966907,28.06725 85.099717,29.61413 89.599807,32.70779 C 92.130957,34.48912 94.638767,36.90318 97.123244,39.94998 C 93.373147,43.137551 90.630967,45.97351 88.896687,48.45781 C 85.755967,52.95787 84.185657,57.92662 84.185747,63.36406 C 84.185657,69.31723 85.849717,74.68442 89.177937,79.46562 C 92.505957,84.24691 96.302824,87.27034 100.56855,88.53593 C 98.787204,94.30158 95.834084,100.32501 91.709187,106.60625 C 85.474717,116.02812 79.287227,120.73906 73.146687,120.73906 C 70.709107,120.73906 67.334107,119.96562 63.021687,118.41875 C 58.755997,116.87187 55.14663,116.09844 52.19356,116.09843 C 49.24038,116.09844 45.79507,116.89531 41.85763,118.48906 C 37.96696,120.12968 34.8029,120.94999 32.36544,120.95 C 25.00603,120.94999 17.78729,114.71563 10.70919,102.24687 C 3.63105,89.91878 0.09199,77.82504 0.092,65.96562 C 0.09199,54.95006 2.7873,45.97351 8.1779402,39.03591 C 13.61542,32.0985 20.45916,28.62975 28.70919,28.62966 M 73.006057,0.92654 C 73.193477,1.53603 73.310667,2.07509 73.357627,2.54373 C 73.404417,3.01259 73.427857,3.48134 73.427937,3.94998 C 73.427857,6.95009 72.724727,10.23133 71.318557,13.79373 C 69.912237,17.35633 67.685677,20.66101 64.638877,23.70779 C 62.013807,26.28601 59.412247,28.02038 56.83419,28.91091 C 55.1935,29.42663 52.70913,29.82507 49.38106,30.10623 C 49.47476,22.98132 51.32632,16.81727 54.93575,11.61404 C 58.591927,6.41103 64.615367,2.84853 73.006057,0.92654"
       id="text1535" />
  </g>
</svg>
