<?xml version="1.0" encoding="utf-8"?>
<!-- Generator: Adobe Illustrator 15.0.0, SVG Export Plug-In . SVG Version: 6.00 Build 0)  -->
<!DOCTYPE svg PUBLIC "-//W3C//DTD SVG 1.1//EN" "http://www.w3.org/Graphics/SVG/1.1/DTD/svg11.dtd">
<svg version="1.1" id="Layer_1" xmlns="http://www.w3.org/2000/svg" xmlns:xlink="http://www.w3.org/1999/xlink" x="0px" y="0px"
	 width="144px" height="288px" viewBox="0 0 144 288" enable-background="new 0 0 144 288" xml:space="preserve">
<path fill="#7399C6" d="M91.154,28.98c-9.781-2.08-18.115,3.744-23.943,11.079c-6.71,8.44-11.159,18.726-14.781,28.797
	c-4.796,13.356-8.172,27.278-10.8,41.205c-2.7,14.331-4.378,28.861-4.856,43.441c-0.236,7.203-0.229,14.424,0.193,21.615
	c0.206,3.557,0.537,7.105,1.043,10.633c0.244,1.686,0.534,3.369,0.869,5.033c0.167,0.838,0.348,1.672,0.538,2.5
	c0.188,0.189,0.965-0.074,1.173-0.119c6.229-1.33,12.979-1.646,19.33-1.211c6.84,0.463,13.158,2.541,19.099,5.941
	c1.436,0.82,2.844,1.695,4.205,2.623c0.709,0.482,1.402,0.979,2.088,1.486c0.611,0.455,1.115,1.066,1.803,1.412
	c1.795-2.844,3.406-5.809,4.863-8.838c2.92-6.088,5.26-12.438,7.402-18.834c4.525-13.488,7.994-27.303,10.424-41.319
	c2.467-14.251,4.049-28.682,4.512-43.144c0.395-12.274-0.027-24.833-2.92-36.818C108.77,43.608,103.162,31.537,91.154,28.98z
	 M59.101,137.19l44.36-39.938c0.086,8.135-0.168,16.29-1.082,24.379c-0.914,8.135-2.381,16.24-4.055,24.253
	c-10.809-2.399-21.623-4.792-32.432-7.191C63.627,138.193,61.366,137.693,59.101,137.19z M66.062,68.422
	c3.2-5.489,6.369-10.92,10.975-15.381c3.566-3.451,9.076-7.085,13.82-3.58c4.059,2.999,6.268,8.532,7.852,13.124
	c2.096,6.092,3.309,12.779,3.877,19.188c-12.887-3.085-25.84-5.917-38.755-8.868C64.579,71.412,65.317,69.921,66.062,68.422z
	 M48.21,125.827c1.41-6.904,2.511-13.871,4.161-20.723c0.827-3.438,1.859-6.809,2.951-10.17c0.245-0.757,2.638-8.511,2.887-8.454
	c4.794,1.079,9.583,2.164,14.381,3.245c5.955,1.345,11.912,2.692,17.867,4.032l-42.809,36.18
	C47.83,128.567,48.018,127.194,48.21,125.827z M93.453,164.719c-1.047,3.238-2.088,6.482-3.344,9.648
	c-0.137,0.344-1.424,3.773-1.621,3.73c-0.102-0.018-0.207-0.045-0.314-0.066c-1.65-0.352-3.314-0.707-4.973-1.061
	c-6.598-1.404-13.197-2.814-19.797-4.221c-5.849-1.244-11.697-2.492-17.543-3.74c-0.155-3.178-0.143-6.361-0.287-9.543
	c-0.151-3.246,0.316-6.469,0.273-9.703c10.342,2.355,20.687,4.713,31.026,7.07c5.918,1.35,11.834,2.697,17.752,4.045
	C94.211,162.158,93.826,163.432,93.453,164.719z"/>
<path fill="#7399C6" d="M81.777,237.092c-1.947,14.471-14.952,24.668-29.05,22.77c-14.093-1.895-23.928-15.168-21.978-29.631
	c1.952-14.467,14.941-24.65,29.031-22.754C73.873,209.375,83.715,222.629,81.777,237.092z"/>
</svg>
