<?xml version="1.0" encoding="UTF-8" standalone="no"?>
<svg
   xmlns:dc="http://purl.org/dc/elements/1.1/"
   xmlns:cc="http://creativecommons.org/ns#"
   xmlns:rdf="http://www.w3.org/1999/02/22-rdf-syntax-ns#"
   xmlns:svg="http://www.w3.org/2000/svg"
   xmlns="http://www.w3.org/2000/svg"
   xmlns:sodipodi="http://sodipodi.sourceforge.net/DTD/sodipodi-0.dtd"
   xmlns:inkscape="http://www.inkscape.org/namespaces/inkscape"
   version="1.1"
   width="663"
   height="298"
   id="svg2"
   inkscape:version="0.46+devel"
   sodipodi:docname="Zelda_Logo.svg">
  <metadata
     id="metadata124">
    <rdf:RDF>
      <cc:Work
         rdf:about="">
        <dc:format>image/svg+xml</dc:format>
        <dc:type
           rdf:resource="http://purl.org/dc/dcmitype/StillImage" />
      </cc:Work>
    </rdf:RDF>
  </metadata>
  <defs
     id="defs122">
    <inkscape:perspective
       sodipodi:type="inkscape:persp3d"
       inkscape:vp_x="0 : 149 : 1"
       inkscape:vp_y="0 : 1000 : 0"
       inkscape:vp_z="663 : 149 : 1"
       inkscape:persp3d-origin="331.5 : 99.333333 : 1"
       id="perspective126" />
  </defs>
  <sodipodi:namedview
     pagecolor="#ffffff"
     bordercolor="#666666"
     borderopacity="1"
     objecttolerance="10"
     gridtolerance="10"
     guidetolerance="10"
     inkscape:pageopacity="0"
     inkscape:pageshadow="2"
     inkscape:window-width="1440"
     inkscape:window-height="825"
     id="namedview120"
     showgrid="false"
     inkscape:zoom="1.1199812"
     inkscape:cx="271.02186"
     inkscape:cy="434.3799"
     inkscape:window-x="0"
     inkscape:window-y="25"
     inkscape:window-maximized="1"
     inkscape:current-layer="svg2" />
  <text
     xml:space="preserve"
     style="font-size:22.10960578999999981px;fill:#ca010c;stroke:#ca010c;stroke-width:1px;stroke-linecap:butt;stroke-linejoin:miter;stroke-opacity:1;fill-opacity:1"
     x="581.62061"
     y="90.411545"
     id="text2934"
     transform="scale(1.0000477,0.99995231)"><tspan
       sodipodi:role="line"
       id="tspan2936"
       x="581.62061"
       y="90.411545"
       style="stroke-width:1;fill:#ca010c;fill-opacity:1;stroke:#ca010c;stroke-opacity:1">®</tspan></text>
  <path
     d="M 522.9,63.025 537.075,77.9 501.85,202.625 483.425,217.65 535.2,216.975 523.125,205.525 531.375,168.15 559.05,168.35 566.575,204.925 554.8,217.75 618.4,217.275 602.625,202.25 565.55,63.525 522.9,63.025 z M 545.70715,118.09338 555.49982,152.7356 536.98586,152.1356 545.70715,118.09338 z"
     style="fill:#ca010c"
     id="path4" />
  <path
     d="M 441.8282,65.443224 403.29327,64.029 417.96459,78.264611 418.15743,204.55057 398.372,220.186 449.56448,217.93609 C 539.18412,201.11799 524.24532,62.363802 441.8282,65.443224 z M 448.65008,77.775388 C 478.80094,78.725433 495.9286,181.52124 449.80008,204.30048 L 448.65008,77.775388 z"
     style="fill:#ca010c"
     id="path6" />
  <path
     d="M 60.5,37.2 42.9,85.1 89,48.9 180.1,49.8 43.9,256.9 209.47496,259.525 224.20358,219.36069 311.97131,218.3356 310.99278,148.55724 289.45003,203.55 262.43555,203.45009 262.6284,148.48551 277.7071,147.02129 292.26416,163.61414 292.16416,115.00018 277.23572,130.67155 262.65701,130.39302 262.63555,77.806979 288.95003,76.242756 311.67131,123.0356 312.357,63.342933 218.5572,64.028622 230.78582,79.257067 231.27151,205.23578 187.5,244.3 88.3,244.8 224.29996,37.3 60.5,37.2 z"
     style="fill:#ca010c"
     id="path8" />
  <path
     d="M 313.72164,64.614311 379.59267,63.542933 364.2356,77.071555 364.92845,203.0644 379.42147,202.67155 400.28569,146.11449 401.16422,217.26422 312.70018,216.97138 332.05009,203.41431 330.97871,76.7 313.72164,64.614311 z"
     style="fill:#ca010c"
     id="path10" />
  <path
     d="M 0,0 0.1,0 C 0.1,0 0,0 0,0 L 0,0 z"
     style="fill:#ca010c"
     id="path12" />
  <path
     d="M 391.4,33.1 C 391.3,21.7 405.1,19.8 413.7,22.3 L 413.8,29 C 412.4,22.9 405.7,22.2 400.6,23.5 398.4,25.1 397.4,27.6 396.7,30.2 397.1,35.3 397.1,43.1 404,44.2 405.6,43.9 407.3,43.8 409,43.7 L 409.3,35.9 C 408.2,35.2 407.2,34.5 406.1,33.8 411.4799,35.214214 411.44437,34.889949 416.5,33.8 415.9,34.3 414.9,35.2 414.4,35.7 L 414.4,44.2 C 405.7,47.7 390.5,45.1 391.4,33.1 z"
     style="fill:#ca010c"
     id="path14" />
  <path
     d="M 448.7,22 461.6,37.2 461.6,23.8125 458.6,21.8 C 462.5,22.5 462.7,22.6 467,22 L 464,23.9 464,45.7 446.4,25.2 446.4,42.8 450.1,45.8 C 445.30294,44.568629 445.03137,44.385786 440.8,45.8 L 444,42.8 444,23.7 C 442.7,23.1 442,22.5 440.8,21.9 444.5,22.6 443.8,21.8 448.7,22 z"
     style="fill:#ca010c"
     id="path16" />
  <path
     style="fill:#ca010c"
     d="M 522.4375 21.4375 C 517.52373 21.627838 512.65625 24.125 510.6875 28.90625 C 510.4875 30.20625 510.29375 31.6 510.09375 33 C 509.89375 37.8 512.5875 42.1125 516.6875 44.3125 C 526.1875 49.2125 539.0125 40.5875 535.3125 29.6875 C 533.66563 23.95 528.00644 21.221783 522.4375 21.4375 z M 521.71875 23 C 532.13708 22.381104 533.40625 42.53125 523 44.40625 C 520.1 43.80625 517.99375 41.6875 516.59375 39.1875 C 516.19375 37.8875 516.6 36.3125 515.5 35.3125 C 515.2 31.0125 516 26.30625 519.5 23.40625 C 520.275 23.16875 521.02419 23.04126 521.71875 23 z "
     id="path18" />
  <path
     d="M 262.45563,22.124264 279.84437,21.982843 281.43431,28.392893 C 279.33431,25.492893 277.8,22.3 273.6,23.6 L 274.26863,42.844365 C 274.76863,43.044365 276.9,44.9 277.4,45.1 270.93726,44.027208 270.9799,43.968629 264.8,45.2 266,44.5 267.1,43.8 268.4,43.3 L 268.4,23.5 C 264.3,22.5 262.56569,25.110051 261.16569,28.310051 L 262.45563,22.124264 z"
     style="fill:#ca010c"
     id="path20" />
  <path
     d="M 282.4,21.8 C 287.6,22.5 287.8,22.5 293.7,21.7 292.9,22.6 291.9,23.3 290.8,23.7 L 291.2,32.5 300.8,32.6 300.8,23.8 298.5,21.7 C 303.2,22.9 303.4,22.9 309.4,21.9 L 306.4,23.5 306.4,43.1 308.9,45.2 C 303.4,44.2 302.8,44.3 297.6,45.3 L 300.8,43.440927 300.8,34.2 290.7,34.2 291.2,43.6 C 292.9,44.7 292.4,44.6 293.9,45.3 288.5,43.8 288.4,43.8 283,45.3 L 284.7125,43.148437 284.5625,23.282812 282.4,21.8 z"
     style="fill:#ca010c"
     id="path22" />
  <path
     d="M 311.1,21.9 C 316.9,23.3 320.95147,22.241421 328.45147,22.341421 328.45147,24.441421 328.93431,25.834315 328.83431,27.934315 326.65956,23.422063 327.17181,23.435296 322.73431,23.307107 L 318.1344,23.407107 318.1344,32.4 324,32.3 326.5,28 C 325.86667,32.9 325.83333,32.8 326.7,37.9 L 324,33.8 318.1344,33.6 318.1344,44.107107 324.58162,43.914214 C 328.85858,42.738478 329.13431,41.662742 330.5,38 330.7,40.3 330.7,42.6 330.7,44.9 324.4,44.3 317.5,44.1 310.9,45.2 L 312.7,43.8 312.7,23.3 C 312.3,23 311.5,22.2 311.1,21.9 z"
     style="fill:#ca010c"
     id="path24" />
  <path
     d="M 346.1,21.7 C 351.45563,22.465685 352.00294,22.648528 357.6,21.8 L 354.49926,24.046089 354.6,43.4 C 359.5,44.5 365.4,43.6 366.3,37.6 366.9,40 366.7,42.5 366.7,44.9 358.92497,44.837199 353.08111,43.589605 346.44853,45.2 L 349.3875,42.812489 349.2,23.9 346.1,21.7 z"
     style="fill:#ca010c"
     id="path26" />
  <path
     style="fill:#ca010c"
     d="M 479.375 21.625 C 474.34102 21.667383 473.475 22.86875 469.1875 21.90625 L 471.84375 23.96875 L 471.5 43.59375 L 469 45.3125 C 473.9 44.0125 473.2 45.4875 483 45.1875 C 498.29386 44.832288 496.8125 21.5875 481.8125 21.6875 C 480.9 21.6375 480.09414 21.618945 479.375 21.625 z M 480 22.8125 C 490.1 23.0125 491.80625 37.7 484.90625 43 C 482.50625 43.8 480.7125 44.6 477.3125 43.5 C 476.9125 36.8 477.1875 30.2 477.1875 23.5 C 477.8875 23.4 479.3 23.0125 480 22.8125 z "
     id="path28" />
  <path
     d="M 538.7,22.1 C 544.50651,23.409767 545.00538,22.108064 557.8,22.2 557.7,24.3 557.8,26.5 557.7,28.6 557.1,27.4 556.6,26.2 556.1,25 555.6,24.6 554.6,24 554.1,23.6 551.8,23.5 549.6,23.4 547.3,23.3 547,26.3 547.1,29.3 547.1,32.4 550.9,33.1 553.6,31.8 555.3,28.3 555.1,31.4 555.1,34.6 555.3,37.7 553.6,34 550.6,32.9 546.7,33.7 547,37 547.2,40.3 547.2,43.6 547.7,44 548.6,44.8 549.1,45.3 545.37381,43.795225 542.09937,44.297499 538.9,45.3 L 541.8125,43.1625 541.5,23.8 C 540.5,23.3 539.6,22.7 538.7,22.1 z"
     style="fill:#ca010c"
     id="path30" />
  <path
     d="M 192.74293,59.085689 160.5,120.6 147.5,126.9 192.74293,59.085689 z"
     style="fill:#ef9fa1"
     id="path36" />
  <path
     d="M 192.76422,58.950088 148.1,125.9 146.9,113.1 192.76422,58.950088 z"
     style="fill:#7d0609"
     id="path38" />
  <path
     d="M 317,59.5 C 338.8,60.8 360.6,59.6 382.4,60.1 380.3,62.2 378.1,64.4 375.2,65.3 356.4,65 337.5,65.1 318.7,65.2 318.3,65.1 317.6,64.8 317.3,64.6 317.2,62.9 317.1,61.2 317,59.5 z"
     style="fill:#ef9fa1"
     id="path40" />
  <path
     d="M 383.1,59.4 384.7837,65.264488 368.2,77.8 368.8,200.8 362.4,205 361.6,73.850265 375.2,65.3 383.1,59.4 z"
     style="fill:#7d0609"
     id="path42" />
  <path
     d="M 400.2,60 C 425.1,60.5 449.97525,57.4 473.77525,66.4 L 469.3,71.2 C 449.7,62.6 427.8,65.9 407.1,65.2 L 395.7,65.3 400.2,60 z"
     style="fill:#ef9fa1"
     id="path44" />
  <path
     d="M 520.67138,60.1 568.5,60.1 563.5,64.5 517.1,64.5 520.67138,60.1 z"
     style="fill:#ef9fa1"
     id="path46" />
  <path
     d="M 568.5,60.1 569.2,59.3 604.8,198.7 623.3,216.6 622.9,221.7 551.2,222.2 549.6,216.4 558.9,216 614,215.8 600,204 563.5,64.7 568.5,60.1 z"
     style="fill:#7d0609"
     id="path48" />
  <path
     d="M 317,59.5 317.3,64.6 333.1,75.6 326.2,76.8 317.2,71.4 317.2,125.7 305.7,125.8 310.7,121.6 310.6,65.1 317,59.5 z"
     style="fill:#7d0609"
     id="path50" />
  <path
     d="M 395.7,65.3 C 399.5,65.3 403.3,65.2 407.1,65.2 411.2,69.5 416.2,72.8 420.6,76.8 418.3,78.3 415.9,79.5 413.2,80.1 407.5,74.9 401.6,70.2 395.7,65.3 z"
     style="fill:#7d0609"
     id="path52" />
  <path
     d="M 517.71431,64.5 526.7,64.5 539.7,77.6 533.07138,77.992845 517.71431,64.5 z"
     style="fill:#7d0609"
     id="path54" />
  <path
     d="M 533.31431,78.3 539.7,77.6 504.2,204.1 488.7,215.6 479.1,222.2 478,216.3 499.6,199.8 533.31431,78.3 z"
     style="fill:#ef9fa1"
     id="path56" />
  <path
     d="M 469.3,71.2 473.81061,66.496464 C 505.21061,79.696464 515.5,116.9 512.7,148.2 512,163.7 508.8,179.5 500.2,192.7 487.4,214.2 460.8,222.4 437,222 367.1,222.4 297.2,221.9 227.2,222.2 L 213.1,262.4 39.9,262.4 36.4,256.6 207.12809,257.5 223.04991,215.3644 310.8,215.7 310.8,150.2 317.5,145.6 317.2,209.8 315.7,215.92 399.7,215.8 399.7,150.8 406.4,144.6 406.4,206.6 403.6,216.1 452.2,215.3 C 474.1,213.4 494.7,198.3 500.7,176.8 511.8,140.7 508.8,88.5 469.3,71.2 z"
     style="fill:#7d0609"
     id="path58" />
  <path
     d="M 260,74 291.44276,73.992845 286.6,78.9 266.7,78.9 266.5,79.7 266.5,128.4 260.3,133 260,74 z"
     style="fill:#7d0609"
     id="path60" />
  <path
     d="M 291,73.9 310.7,121.6 305.7,125.8 305.4,126 286.6,78.9 291,73.9 z"
     style="fill:#ef9fa1"
     id="path62" />
  <path
     d="M 444.4,74 C 474.9,78.8 482.2,116.3 482.2,142 481.5,166.8 474.6,202.9 445.4,207.6 L 451.8,200.2 C 460.3,197.4 464.4,188.4 467.8,180.8 478.1,153.2 478.1,120.6 465,93.9 461.9,88.6 458.1,82.6 451.7,81 L 444.4,74 z"
     style="fill:#ef9fa1"
     id="path64" />
  <path
     d="M 444.9,74.5 451.7,81 451.8,200.2 446,206.9 444.9,74.5 z"
     style="fill:#7d0609"
     id="path68" />
  <path
     d="M 333.1,75.6 334.1,204 316,216 317.2,209.8 327.4,202 326.2,76.8 333.1,75.6 z"
     style="fill:#ef9fa1"
     id="path70" />
  <path
     d="M 413.2,80.1 420.6,76.8 420.5,206.6 403.6,216.1 406.4,206.6 414,202.8 413.2,80.1 z"
     style="fill:#ef9fa1"
     id="path74" />
  <path
     d="M 227.9,79.1 234.3,77.5 234.2,206.7 187.5,244.3 88.3,244.8 88.6,243.7 99.6,238.5 185.8,238.7 228.1,203.1 227.9,79.1 z"
     style="fill:#ef9fa1"
     id="path76" />
  <path
     d="M 546.5,107.3 559,155.2 532.4,155.2 540.5,149.5 551.4,150.1 546,130.1 546.5,107.3 z"
     style="fill:#ef9fa1"
     id="path82" />
  <path
     d="M 546.5,108.4 546,130.1 540.5,149.5 532.8,155.18569 546.5,108.4 z"
     style="fill:#7d0609"
     id="path84" />
  <path
     d="M 291.5,109.9 298.1,112.1 290.7,119.1 278.7,133.6 260.3,133 266.5,128.4 276.2,128.5 291.5,109.9 z"
     style="fill:#ef9fa1"
     id="path86" />
  <path
     d="M 290.7,119.1 C 292.9,116.5 295.5,114.3 298.1,112.1 298.1,130.3 298.2,148.5 298.1,166.7 298,167 297.7,167.5 297.6,167.8 296.7,168.1 295.7,168.4 294.7,168.7 293,169.2 291.3,169.5 289.6,169.9 285.1,163.3 280.5,156.8 276,150.2 273,150.1 270.1,150.1 267.1,150.1 L 266,150.1 C 266,166.9 266.2,183.7 266,200.5 263.9,202.2 261.8,203.8 259.8,205.5 259.7,184.9 259.7,164.3 259.7,143.8 265.8,143.9 271.9,143.9 278,143.8 283,148.7 286.4,154.8 290.8,160.1 290.9,146.4 291,132.7 290.7,119.1 z"
     style="fill:#7d0609"
     id="path88" />
  <path
     d="M 126.7,142.8 140.1,137.5 141.2,149.5 128.7,154.6 126.7,142.8 z"
     style="fill:#7d0609"
     id="path90" />
  <path
     d="M 395,145 406.22122,144.67878 399.7,150.8 380.3,205.6 362,205.7 368.8,200.8 375.9,200.4 395,145 z"
     style="fill:#ef9fa1"
     id="path92" />
  <path
     d="M 305.9,146 317.18569,145.90716 310.8,150.2 291.5,205.6 259.8,205.6 259.8,205.5 266,200.5 287.8,200.2 305.9,146 z"
     style="fill:#ef9fa1"
     id="path94" />
  <path
     d="M 128.7,154.6 133.9,146.6 140.8,149.8 128.3,155.2 128.7,154.6 z"
     style="fill:#ef9fa1"
     id="path96" />
  <path
     d="M 529.9,165.8 561.1,166 556,171.2 534.7,171.5 526.1,204.8 540.00517,216.61767 538.3,221.6 479.1,222.2 488.7,215.6 531.1,215.8 519.6,207 529.9,165.8 z"
     style="fill:#7d0609"
     id="path98" />
  <path
     d="M 561.1,166 561.3,166.8 569.8,206.4 558.60716,216 549.57853,216.4 563.17138,204.50716 556,171.2 561.1,166 z"
     style="fill:#ef9fa1"
     id="path100" />
  <path
     d="M 107.5,173.5 121.2,168.6 121.2,179.5 74.5,234.8 107.5,173.5 z"
     style="fill:#7d0609"
     id="path102" />
  <path
     d="M 114.3,176.5 121.4,179.9 75.771378,233.87155 114.3,176.5 z"
     style="fill:#ef9fa1"
     id="path104" />
  <path
     d="M 55.5,30.4 C 114.3,29.9 173.3,30.9 232,29.8 L 231.2,30.5 C 228.9,32.7 226.8,35.2 224.3,37.3 169.7,37 115.1,37.2 60.5,37.2 54.8,53.2 48.6,69 42.9,85.1 39.7,88.2 36.1,90.7 32.6,93.3 40,72.2 48.3,51.5 55.5,30.4 z"
     style="fill:#ef9fa1"
     id="path106" />
  <path
     d="M 224.3,37.3 231.2,30.5 233.7,37 216.94293,61.942756 234.24991,77.653577 227.9,79.1 213.8,67.1 99.6,238.5 88.6,243.7 224.3,37.3 z"
     style="fill:#7d0609"
     id="path108" />
  <path
     d="M 89,48.9 180.1,49.8 169.1,54.7 90.8,54.6 37.1,97.7 32.6,93.3 89,48.9 z"
     style="fill:#7d0609"
     id="path110" />
  <path
     d="M 181,49.5 43.9,256.9 36.4,256.9 169.1,54.7 181,49.5 z"
     style="fill:#ef9fa1"
     id="path112" />
  <path
     d="M 215.9,63.5 C 216.8,62.2 217.8,60.9 218.7,59.6 251.2,60.7 283.8,59.6 316.3,60.1 314.4,61.8 312.5,63.5 310.6,65.1 280.7,65.2 250.8,65 220.9,65.2 219.2,64.7 217.5,64.1 215.9,63.5 z"
     style="fill:#ef9fa1"
     id="path114" />
  <path
     d="M 369.3652,21.9 C 375.1652,23.3 379.21667,22.241421 386.71667,22.341421 386.71667,24.441421 387.19951,25.834315 387.09951,27.934315 384.92476,23.422063 385.43701,23.435296 380.99951,23.307107 L 376.3996,23.407107 376.3996,32.4 382.2652,32.3 384.7652,28 C 384.13187,32.9 384.09853,32.8 384.9652,37.9 L 382.2652,33.8 376.3996,33.6 376.3996,44.107107 382.84682,43.914214 C 387.12378,42.738478 387.39951,41.662742 388.7652,38 388.9652,40.3 388.9652,42.6 388.9652,44.9 382.6652,44.3 375.7652,44.1 369.1652,45.2 L 370.9652,43.8 370.9652,23.3 C 370.5652,23 369.7652,22.2 369.3652,21.9 z"
     style="fill:#ca010c"
     id="path116" />
  <path
     d="M 419.2876,21.9 C 425.0876,23.3 429.13907,22.241421 436.63907,22.341421 436.63907,24.441421 437.12191,25.834315 437.02191,27.934315 434.84716,23.422063 435.35941,23.435296 430.92191,23.307107 L 426.322,23.407107 426.322,32.4 432.1876,32.3 434.6876,28 C 434.05427,32.9 434.02093,32.8 434.8876,37.9 L 432.1876,33.8 426.322,33.6 426.322,44.107107 432.76922,43.914214 C 437.04618,42.738478 437.32191,41.662742 438.6876,38 438.8876,40.3 438.8876,42.6 438.8876,44.9 432.5876,44.3 425.6876,44.1 419.0876,45.2 L 420.8876,43.8 420.8876,23.3 C 420.4876,23 419.6876,22.2 419.2876,21.9 z"
     style="fill:#ca010c"
     id="path118" />
</svg>
